<?xml version="1.0" standalone="no"?>
<!DOCTYPE svg PUBLIC "-//W3C//DTD SVG 20010904//EN"
 "http://www.w3.org/TR/2001/REC-SVG-20010904/DTD/svg10.dtd">
<svg version="1.0" xmlns="http://www.w3.org/2000/svg"
 width="400.000000pt" height="400.000000pt" viewBox="0 0 400.000000 400.000000"
 preserveAspectRatio="xMidYMid meet">
<metadata>
Created by potrace 1.11, written by Peter Selinger 2001-2013
</metadata>
<g transform="translate(0.000000,400.000000) scale(0.100000,-0.100000)"
fill="#000000" stroke="none">
<path d="M1858 3955 c-2 -1 -32 -5 -68 -9 -36 -3 -75 -8 -86 -10 -12 -2 -39
-7 -60 -10 -153 -25 -426 -121 -554 -196 -231 -134 -315 -197 -467 -348 -204
-201 -369 -465 -464 -737 -30 -89 -65 -221 -74 -281 -4 -21 -8 -46 -10 -54
-12 -44 -20 -163 -20 -305 0 -189 8 -277 41 -425 3 -14 7 -36 10 -50 31 -152
138 -401 246 -573 92 -148 252 -334 373 -437 112 -94 308 -230 332 -230 3 0
14 -6 22 -13 23 -20 204 -100 292 -130 93 -32 258 -74 324 -82 28 -3 77 -10
110 -15 78 -11 389 -5 485 9 632 96 1175 485 1464 1051 68 131 144 337 162
435 3 16 7 31 9 35 2 4 7 29 11 56 3 27 8 52 10 55 17 29 25 402 12 532 -71
657 -495 1253 -1098 1540 -229 110 -413 163 -650 187 -69 7 -345 11 -352 5z"/>
</g>
</svg>
